# xmcd
#
# Track frame offsets:
#	150
#	29527
#	47279
#	54461
#
# Disc length: 1175 seconds
#
# Revision: 0
# Processed by: cddbd v1.5.1PL0 Copyright (c) Steve Scherf et al.
# Submitted via: audiograbber 1.83.01
#
DISCID=29049504
DTITLE=Grimworks - Rootbreaker
DYEAR=2003
DGENRE=Metal
TTITLE0=Ravenheart
TTITLE1=Crypt of Memories
TTITLE2=The Fallen
TTITLE3=Nocturne
EXTD=
EXTT0=
EXTT1=
EXTT2=
EXTT3=
PLAYORDER=
